<?xml version="1.0" encoding="UTF-8" standalone="no"?><!DOCTYPE svg PUBLIC "-//W3C//DTD SVG 1.1//EN" "http://www.w3.org/Graphics/SVG/1.1/DTD/svg11.dtd"><svg width="100%" height="100%" viewBox="0 0 50 50" version="1.1" xmlns="http://www.w3.org/2000/svg" xmlns:xlink="http://www.w3.org/1999/xlink" xml:space="preserve" xmlns:serif="http://www.serif.com/" style="fill-rule:evenodd;clip-rule:evenodd;stroke-linejoin:round;stroke-miterlimit:2;"><rect id="weapon-phaser-array-area" x="0" y="0" width="50" height="50" style="fill:none;"/><path d="M8,42C8,42 27.87,29.201 34.87,22.201C36.821,20.25 36.821,17.081 34.87,15.13C32.919,13.179 29.75,13.179 27.799,15.13C20.799,22.13 8,42 8,42Z" style="fill:#fff;"/><path d="M8,42C8,42 27.87,29.201 34.87,22.201C36.821,20.25 36.821,17.081 34.87,15.13C32.919,13.179 29.75,13.179 27.799,15.13C20.799,22.13 8,42 8,42ZM23.711,26.289C26.196,22.975 28.648,19.938 30.627,17.958C31.018,17.568 31.651,17.568 32.042,17.958C32.432,18.349 32.432,18.982 32.042,19.373C30.062,21.352 27.026,23.804 23.711,26.289Z" style="fill:#f2a60d;"/><path d="M8,42C8,42 27.87,29.201 34.87,22.201C36.821,20.25 36.821,17.081 34.87,15.13C32.919,13.179 29.75,13.179 27.799,15.13C20.799,22.13 8,42 8,42ZM15.207,34.794C19.463,28.577 25.268,20.489 29.213,16.544C30.384,15.373 32.285,15.373 33.456,16.544C34.627,17.715 34.627,19.616 33.456,20.787C29.511,24.732 21.423,30.537 15.207,34.793L15.207,34.794Z" style="fill:#f26c0d;"/><path d="M6.034,40.493C3.263,37.125 0.193,32.165 0.193,32.165C0.193,32.165 5.113,34.128 8.863,36.167C9.223,36.057 9.605,36 10,36C12.208,36 14,37.792 14,40C14,40.406 13.939,40.798 13.826,41.167C15.849,44.907 17.785,49.757 17.785,49.757C17.785,49.757 12.887,46.726 9.52,43.969C7.7,43.753 6.254,42.311 6.034,40.493Z" style="fill:#fff;"/><path d="M6.034,40.493C3.263,37.125 0.193,32.165 0.193,32.165C0.193,32.165 5.113,34.128 8.863,36.167C9.223,36.057 9.605,36 10,36C12.208,36 14,37.792 14,40C14,40.406 13.939,40.798 13.826,41.167C15.849,44.907 17.785,49.757 17.785,49.757C17.785,49.757 12.887,46.726 9.52,43.969C7.7,43.753 6.254,42.311 6.034,40.493ZM10.828,41.27C10.816,40.94 10.859,40.606 10.959,40.284C10.986,40.194 11,40.099 11,40C11,39.448 10.552,39 10,39C9.908,39 9.818,39.012 9.734,39.038C9.403,39.138 9.06,39.179 8.721,39.163C8.872,39.465 8.971,39.793 9.012,40.131C9.066,40.58 9.424,40.936 9.873,40.989C10.207,41.029 10.53,41.124 10.828,41.27Z" style="fill:#f2a60d;"/><path d="M6.034,40.493C3.263,37.125 0.193,32.165 0.193,32.165C0.193,32.165 5.113,34.128 8.863,36.167C9.223,36.057 9.605,36 10,36C12.208,36 14,37.792 14,40C14,40.406 13.939,40.798 13.826,41.167C15.849,44.907 17.785,49.757 17.785,49.757C17.785,49.757 12.887,46.726 9.52,43.969C7.7,43.753 6.254,42.311 6.034,40.493ZM8.019,40.252L7.949,39.673L7.578,39.222C6.96,38.47 6.326,37.637 5.716,36.799C6.461,37.163 7.206,37.542 7.908,37.924L8.643,38.323L9.443,38.081C9.62,38.027 9.807,38 10,38C11.104,38 12,38.896 12,40C12,40.201 11.971,40.395 11.914,40.578L11.667,41.38L12.067,42.118C12.434,42.798 12.799,43.515 13.149,44.233C12.334,43.639 11.523,43.024 10.788,42.421L10.336,42.051L9.756,41.982C8.849,41.875 8.129,41.157 8.019,40.252Z" style="fill:#f26c0d;"/><path d="M40,10L45,0L50,10L40,10Z" style="fill:#f1de7f;"/><path d="M40,22L45,12L50,22L40,22Z" style="fill:#f1de7f;"/><path d="M28,10L33,0L38,10L28,10Z" style="fill:#f1de7f;"/></svg>