<?xml version="1.0" encoding="UTF-8" standalone="no"?><!DOCTYPE svg PUBLIC "-//W3C//DTD SVG 1.1//EN" "http://www.w3.org/Graphics/SVG/1.1/DTD/svg11.dtd"><svg width="100%" height="100%" viewBox="0 0 50 50" version="1.1" xmlns="http://www.w3.org/2000/svg" xmlns:xlink="http://www.w3.org/1999/xlink" xml:space="preserve" xmlns:serif="http://www.serif.com/" style="fill-rule:evenodd;clip-rule:evenodd;stroke-linejoin:round;stroke-miterlimit:2;"><rect id="weapon-electro-magnetic-pulse" x="0" y="0" width="50" height="50" style="fill:none;"/><path d="M25.345,25.926L31.776,23.588L30.366,22.446L27.927,20.454C27.927,20.454 28.744,19.836 28.744,19.836C28.744,19.836 35.442,18.775 35.442,18.775L34.01,17.313L32.773,16.068C32.773,16.068 36.36,15.292 36.36,15.292L36.511,15.192L39.394,13.152L38.708,12.466L36.273,10.237C36.273,10.237 44.272,9.422 44.272,9.422L44.287,9.299L44.5,6.5L44.018,9.134C44.018,9.134 33.537,9.262 33.537,9.262L34.478,10.202L36.909,12.856C36.909,12.856 35.699,13.599 35.699,13.599C35.699,13.599 28.648,14.813 28.648,14.813L29.988,16.181L31.088,17.323C31.088,17.323 27.887,17.826 27.887,17.826L27.674,17.988L24.527,20.397L25.566,21.238L27.659,22.919C27.659,22.919 24.653,24.049 24.653,24.049L25.345,25.926Z" style="fill:#0d59f2;"/><path d="M25.604,24.118L19.705,22.348L20.075,24.049L20.63,26.659C20.63,26.659 19.848,26.667 19.848,26.667C19.848,26.667 14.49,23.82 14.49,23.82L14.682,25.78L14.832,27.188C14.832,27.188 12.039,25.912 12.039,25.912L11.855,25.903L8.652,25.847L8.753,26.773L9.198,29.563C9.198,29.563 3.281,26.004 3.281,26.004L3.192,26.093L1.5,28L3.307,26.397C3.307,26.397 10.713,31.936 10.713,31.936L10.574,30.661L10.392,27.562C10.392,27.562 11.553,27.668 11.553,27.668C11.553,27.668 17.247,30.601 17.247,30.601L17.067,28.768L16.957,27.527C16.957,27.527 19.333,28.793 19.333,28.793L19.606,28.789L23.224,28.726L22.951,27.471L22.468,25.3C22.468,25.3 25.039,26.037 25.039,26.037L25.604,24.118Z" style="fill:#0d59f2;"/><path d="M25.95,24.691L24.56,20.228L23.672,20.395L21.282,20.834C21.283,20.834 23.209,17.355 23.209,17.355L21.185,17.581L16.377,18.115C16.377,18.115 19.714,13.074 19.714,13.074L17.917,12.997L10.975,12.871L10.868,12.894L7.929,13.652C7.929,13.652 11.815,9.775 11.815,9.775L11.42,9.522L7.524,7.251C7.524,7.251 7.53,3.465 7.53,3.465L7.179,7.44L7.262,7.493L10.634,9.857C10.634,9.857 3.616,16.017 3.616,16.017L5.941,15.504L11.095,14.555C11.095,14.555 16.048,14.894 16.048,14.894C16.048,14.894 12.109,20.718 12.109,20.718L14.371,20.466L19.402,19.903C19.402,19.903 17.324,23.685 17.324,23.685L19.494,23.277L23.166,22.57C23.166,22.57 24.043,25.293 24.043,25.293L25.95,24.691Z" style="fill:#0d59f2;"/><path d="M21.753,28.443L20.448,26.745L20.088,29.193L19.459,33.447C19.459,33.447 17.725,30.456 17.725,30.456L17.158,33.055L15.805,40.227L15.8,40.276L15.691,42.361C15.691,42.361 14.85,39.516 14.85,39.516L14.452,40.351L12.68,44.613C12.68,44.613 10.887,44.846 10.887,44.846L12.815,44.8L12.84,44.747L14.616,41.465C14.616,41.465 16.378,49.059 16.378,49.059L16.697,45.739L17.428,40.516C17.428,40.516 18.542,36.024 18.542,36.024C18.542,36.024 20.669,39.724 20.669,39.724L21.111,36.72L21.809,31.942L23.239,33.788L23.524,31.227L23.97,27.017C23.97,27.017 25.592,25.8 25.592,25.8L24.402,24.193L22.046,25.917L21.997,26.358L21.753,28.443Z" style="fill:#0d59f2;"/><path d="M24.812,21.359L22.905,23.015L23.231,23.713L24.03,25.387L25.842,24.54L25.394,23.561C25.394,23.561 29.451,20.107 29.451,20.107L27.322,19.704L25.897,19.426C25.897,19.426 25.441,18.843 25.441,18.843C25.441,18.843 27.068,14.209 27.068,14.209L25.645,14.148L24.524,14.108L26.642,11.136L25.958,10.617L24.66,9.709L24.325,9.762L21.558,10.356C21.558,10.356 23.178,7.931 23.178,7.931L23.191,7.905L24.14,5.665L23.903,5.643L21.458,5.584L23.628,5.93C23.628,5.93 22.669,7.594 22.669,7.594C22.669,7.594 19.023,11.974 19.023,11.974L20.406,11.757L24.193,11.378C24.193,11.378 24.238,11.416 24.238,11.416C24.238,11.416 20.582,16.012 20.582,16.012L22.535,16.096L24.133,16.186C24.133,16.186 23.058,19.238 23.058,19.238L23.419,19.695L24.728,21.343L24.812,21.359Z" style="fill:#0d59f2;"/><path d="M39.764,22.648L32.743,19.987L34.035,22.364L34.448,23.14L30.928,22.625L30.55,23.041L29.297,24.429L26.456,22.986L25.977,23.264L24.493,24.139L25.497,25.869L26.507,25.293C26.507,25.293 32.756,28.54 32.756,28.54L31.906,26.082L31.56,25.068C31.56,25.068 31.733,24.88 31.733,24.88C31.733,24.88 38.303,25.839 38.303,25.839L37.296,23.984L37.124,23.672L41.211,25.01L41.498,24.203L41.947,22.816L41.653,22.46L40.017,20.663C40.017,20.663 43.288,21.635 43.288,21.635C43.305,21.639 46.345,22.166 46.345,22.166L46.221,21.905L45.083,19.845L45.856,21.752C45.856,21.752 43.47,21.067 43.47,21.067C43.47,21.067 36.322,18.21 36.322,18.21L37.689,19.867L39.764,22.648Z" style="fill:#0d59f2;"/><path d="M24.265,25.658L26.056,27.631C26.056,27.631 22.143,31.41 22.143,31.41L24.373,31.631L26.406,31.84C26.406,31.84 22.07,36.796 22.07,36.796L24.337,36.843L29.023,36.903C29.023,36.903 26.916,40.581 26.916,40.581C26.916,40.581 21.783,45.477 21.783,45.477L24.115,45.014L30.637,43.437C30.637,43.437 30.956,47.225 30.956,47.225L31.044,47.275L34.51,48.998L31.313,47.017C31.313,47.017 31.315,42.538 31.315,42.538L30.894,42.622L26.216,43.353C26.216,43.353 28.243,41.641 28.243,41.641L28.306,41.538L32.52,34.947L30.769,34.911L26.631,34.792C26.631,34.792 30.689,30.15 30.689,30.15L28.649,29.948L26.802,29.772C26.802,29.772 28.901,27.72 28.901,27.72L28.23,26.989L25.738,24.305L24.265,25.658Z" style="fill:#0d59f2;"/><path d="M24.314,25.766L26.441,28.197L27.142,27.837L29.711,26.537C29.711,26.537 29.58,27.201 29.58,27.201L29.761,27.534L31.117,30.037L35.533,30.334L34.075,34.585L35.929,34.105L40.955,32.657C40.955,32.657 41.089,33.106 41.089,33.106C41.089,33.106 38.006,38.764 38.006,38.764L39.321,38.424L44.571,36.799C44.571,36.799 47.096,36.531 47.096,36.531C47.096,36.531 46.401,39.414 46.401,39.414L47.537,36.163L47.302,36.176L44.462,36.197L44.433,36.205L40.388,37.053C40.388,37.053 42.802,33.312 42.802,33.312L42.719,32.992L42.15,30.55L41.319,30.765L37.271,31.697C37.271,31.697 37.31,31.588 37.31,31.588C37.31,31.588 38.431,28.413 38.431,28.413L37.049,28.319L32.418,28.002C32.418,28.002 31.789,26.857 31.789,26.857C31.789,26.857 32.591,22.733 32.591,22.733L30.68,23.713L26.911,25.669C26.911,25.669 25.813,24.442 25.813,24.442L24.314,25.766Z" style="fill:#0d59f2;"/><circle cx="25" cy="25" r="9" style="fill:#fff;"/><path d="M25,16C29.967,16 34,20.033 34,25C34,29.967 29.967,34 25,34C20.033,34 16,29.967 16,25C16,20.033 20.033,16 25,16ZM25,22C26.656,22 28,23.344 28,25C28,26.656 26.656,28 25,28C23.344,28 22,26.656 22,25C22,23.344 23.344,22 25,22Z" style="fill:#6e9cf7;"/><path d="M25,16C29.967,16 34,20.033 34,25C34,29.967 29.967,34 25,34C20.033,34 16,29.967 16,25C16,20.033 20.033,16 25,16ZM25,19C28.311,19 31,21.689 31,25C31,28.311 28.311,31 25,31C21.689,31 19,28.311 19,25C19,21.689 21.689,19 25,19Z" style="fill:#0d59f2;"/></svg>