<?xml version="1.0" encoding="UTF-8" standalone="no"?><!DOCTYPE svg PUBLIC "-//W3C//DTD SVG 1.1//EN" "http://www.w3.org/Graphics/SVG/1.1/DTD/svg11.dtd"><svg width="100%" height="100%" viewBox="0 0 50 50" version="1.1" xmlns="http://www.w3.org/2000/svg" xmlns:xlink="http://www.w3.org/1999/xlink" xml:space="preserve" xmlns:serif="http://www.serif.com/" style="fill-rule:evenodd;clip-rule:evenodd;stroke-linejoin:round;stroke-miterlimit:2;"><rect id="weapon-disruptor-bank" x="0" y="0" width="50" height="50" style="fill:none;"/><path d="M4,44C4,44 29.854,18.634 39.785,6.798C41.026,5.319 40.833,3.109 39.353,1.868C37.874,0.626 35.664,0.819 34.422,2.299C24.491,14.134 4,44 4,44Z" style="fill:#fff;"/><path d="M4,44C4,44 29.854,18.634 39.785,6.798C41.026,5.319 40.833,3.109 39.353,1.868C37.874,0.626 35.664,0.819 34.422,2.299C24.491,14.134 4,44 4,44ZM28.285,15.058C31.415,10.858 34.366,7.033 36.721,4.227C36.898,4.016 37.214,3.988 37.425,4.166C37.636,4.343 37.664,4.659 37.487,4.87C35.132,7.676 31.877,11.247 28.285,15.058Z" style="fill:#a6f20d;"/><path d="M4,44C4,44 29.854,18.634 39.785,6.798C41.026,5.319 40.833,3.109 39.353,1.868C37.874,0.626 35.664,0.819 34.422,2.299C24.491,14.134 4,44 4,44ZM18.909,26.233C24.832,17.954 31.472,8.926 35.954,3.585C36.487,2.95 37.434,2.867 38.068,3.4C38.702,3.932 38.785,4.879 38.253,5.513C33.771,10.854 26.033,18.961 18.909,26.233Z" style="fill:#0df26c;"/><path d="M6,46C6,46 35.866,25.509 47.701,15.578C49.181,14.336 49.374,12.126 48.132,10.647C46.891,9.167 44.681,8.974 43.202,10.215C31.366,20.146 6,46 6,46Z" style="fill:#fff;"/><path d="M6,46C6,46 35.866,25.509 47.701,15.578C49.181,14.336 49.374,12.126 48.132,10.647C46.891,9.167 44.681,8.974 43.202,10.215C31.366,20.146 6,46 6,46ZM34.942,21.715C38.754,18.122 42.324,14.868 45.13,12.513C45.341,12.336 45.657,12.364 45.834,12.575C46.012,12.786 45.984,13.102 45.773,13.279C42.967,15.634 39.141,18.585 34.942,21.715Z" style="fill:#a6f20d;"/><path d="M6,46C6,46 35.866,25.509 47.701,15.578C49.181,14.336 49.374,12.126 48.132,10.647C46.891,9.167 44.681,8.974 43.202,10.215C31.366,20.146 6,46 6,46ZM23.767,31.091C31.038,23.967 39.146,16.229 44.487,11.747C45.121,11.215 46.068,11.298 46.6,11.932C47.133,12.566 47.05,13.513 46.415,14.046C41.074,18.527 32.047,25.167 23.767,31.091Z" style="fill:#0df26c;"/><path d="M3.13,46.87C1.897,46.498 1,45.353 1,44C1,42.344 2.344,41 4,41C5.353,41 6.498,41.897 6.87,43.13C8.103,43.502 9,44.647 9,46C9,47.656 7.656,49 6,49C4.647,49 3.502,48.103 3.13,46.87Z" style="fill:#fff;"/><path d="M3.13,46.87C1.897,46.498 1,45.353 1,44C1,42.344 2.344,41 4,41C5.353,41 6.498,41.897 6.87,43.13C8.103,43.502 9,44.647 9,46C9,47.656 7.656,49 6,49C4.647,49 3.502,48.103 3.13,46.87Z" style="fill:#a6f20d;"/><path d="M3.13,46.87C1.897,46.498 1,45.353 1,44C1,42.344 2.344,41 4,41C5.353,41 6.498,41.897 6.87,43.13C8.103,43.502 9,44.647 9,46C9,47.656 7.656,49 6,49C4.647,49 3.502,48.103 3.13,46.87ZM5.044,46.291L4.734,45.266L3.709,44.956C3.298,44.832 3,44.45 3,44C3,43.448 3.448,43 4,43C4.45,43 4.832,43.298 4.956,43.709L5.266,44.734L6.291,45.044C6.702,45.168 7,45.55 7,46C7,46.552 6.552,47 6,47C5.55,47 5.168,46.702 5.044,46.291Z" style="fill:#0df26c;"/></svg>