<?xml version="1.0" encoding="UTF-8" standalone="no"?><!DOCTYPE svg PUBLIC "-//W3C//DTD SVG 1.1//EN" "http://www.w3.org/Graphics/SVG/1.1/DTD/svg11.dtd"><svg width="100%" height="100%" viewBox="0 0 50 50" version="1.1" xmlns="http://www.w3.org/2000/svg" xmlns:xlink="http://www.w3.org/1999/xlink" xml:space="preserve" xmlns:serif="http://www.serif.com/" style="fill-rule:evenodd;clip-rule:evenodd;stroke-linejoin:round;stroke-miterlimit:2;"><rect id="weapon-energy-drain" x="0" y="0" width="50" height="50" style="fill:none;"/><path d="M25.894,24.552L23.972,20.661L23.075,21.072L21.607,21.736C21.607,21.736 22.565,18.308 22.565,18.308L20.639,19.008L17.245,20.241C17.245,20.241 19.047,15.201 19.047,15.201L17.321,15.513L11.732,16.694L11.624,16.748L9.745,17.785C9.745,17.785 12.04,13.833 12.04,13.833L11.644,13.663L8.157,12.367C8.157,12.367 7.5,9 7.5,9L7.836,12.626L7.929,12.665L10.955,14.141C10.955,14.141 6.168,21.152 6.168,21.152L8.294,20.089L12.238,18.314C12.238,18.314 15.957,17.755 15.957,17.755C15.957,17.755 13.731,23.769 13.731,23.769L15.861,22.994L19.445,21.689C19.445,21.689 18.399,25.484 18.399,25.484L20.434,24.551L23.036,23.341C23.036,23.341 24.106,25.447 24.106,25.447L25.894,24.552Z" style="fill:#0df2cc;"/><path d="M24.707,25.961L28.859,27.226L29.174,26.291L29.696,24.768C29.696,24.768 31.537,27.813 31.537,27.813L32.346,25.931L33.773,22.614C33.773,22.614 36.21,27.379 36.21,27.379L37.165,25.908L40.134,21.028L40.169,20.912L40.701,18.833C40.701,18.833 42.007,23.212 42.007,23.212L42.402,23.04L45.736,21.388C45.736,21.388 48.638,23.216 48.638,23.216L45.767,20.977L45.674,21.017L42.527,22.211C42.527,22.211 40.698,13.921 40.698,13.921L40.016,16.198L38.607,20.287C38.607,20.287 36.467,23.379 36.467,23.379C36.467,23.379 33.611,17.637 33.611,17.637L32.716,19.72L31.211,23.224C31.211,23.224 29.164,19.863 29.164,19.863L28.449,21.984L27.548,24.709C27.548,24.709 25.281,24.045 25.281,24.045L24.707,25.961Z" style="fill:#0df2cc;"/><path d="M24.331,24.261L21.63,26.641L22.254,27.399L22.746,28.004C22.746,28.004 20.007,27.972 20.007,27.972L21.177,29.652L22.522,31.584C22.522,31.584 18.462,31.246 18.462,31.246L19.21,32.835L21.278,36.84L21.357,36.93L22.193,37.783C22.193,37.783 19.152,36.979 19.152,36.979L19.091,37.408L18.864,40.301C18.864,40.3 16.5,41.5 16.5,41.5L19.198,40.54L19.212,40.44L19.724,37.954C19.724,37.954 26.372,40.349 26.372,40.349L24.8,38.567L22.718,35.943C22.718,35.943 21.714,33.579 21.714,33.579C21.714,33.579 26.83,34.069 26.83,34.069L25.534,32.209L24.073,30.114C24.073,30.114 27.187,30.142 27.187,30.142L25.764,28.417L24.454,26.848C24.454,26.848 25.661,25.754 25.661,25.754L24.331,24.261Z" style="fill:#0df2cc;"/><path id="Weapons" d="M27,24.999L23,24.999L20,8.01L22,12.966L23,8.718L24,11.55L25,8.01L26,14.381L27,9.426L28,12.258L30,8.01L27,24.999Z" style="fill:#0df2cc;"/><path id="Weapons1" serif:id="Weapons" d="M25.688,24.303L24.312,25.695L46.216,38.107L40.214,34.096L46.292,36.59L42.814,34.347L47.936,36.368L39.679,31.757L46.713,34.725L43.235,32.482L49.657,34.628L25.688,24.303Z" style="fill:#0df2cc;"/><path id="Weapons2" serif:id="Weapons" d="M24.653,23.605L25.347,26.394L4.202,31.189L10.174,29.006L4.584,28.985L8.022,27.837L3.334,27.704L11.285,25.992L4.792,26.084L8.23,24.936L2.466,24.218L24.653,23.605Z" style="fill:#0df2cc;"/><path d="M27.793,22.704L25.321,22.185L24.962,22.867L24.111,24.515L25.88,25.447L26.39,24.498C26.39,24.498 31.593,25.644 31.593,25.644L30.628,23.704L29.988,22.401C29.988,22.401 30.178,21.686 30.178,21.686C30.178,21.686 34.853,20.182 34.853,20.182L34.042,19.011L33.396,18.094L37.044,17.986L37.044,17.127L36.985,15.545L36.74,15.309L34.594,13.464C34.594,13.464 37.505,13.289 37.505,13.289L37.534,13.284L39.892,12.687L39.766,12.484L38.337,10.5L39.372,12.439C39.372,12.439 37.466,12.681 37.466,12.681C37.466,12.681 31.773,12.421 31.773,12.421L32.782,13.392L35.372,16.181C35.372,16.181 35.369,16.24 35.369,16.24C35.369,16.24 29.498,16.103 29.498,16.103L30.611,17.71L31.505,19.038C31.505,19.038 28.423,20.024 28.423,20.024L28.277,20.589L27.755,22.628L27.793,22.704Z" style="fill:#0df2cc;"/><path d="M28.96,33.722L28.276,36.664L29.106,36.886L30.516,37.2L30.801,37.038L32.785,35.731C32.785,35.731 32.334,38.036 32.334,38.036L32.332,38.067L32.339,40.183L32.565,40.119L34.603,39.374L32.716,39.751C32.716,39.751 32.934,38.157 32.934,38.157C32.934,38.157 34.479,33.378 34.479,33.378L33.311,34.044L30.401,35.462L31.855,30.576L30.053,31.176L28.807,31.569L28.637,28.856L28.129,28.575L26.531,27.702L27.492,25.851L26.897,25.322L25.654,24.238L24.326,25.733L24.952,26.3C24.952,26.3 22.735,30.466 22.735,30.466L24.842,30.082L26.089,29.862C26.089,29.862 26.597,30.146 26.597,30.146C26.597,30.146 26.871,34.425 26.871,34.425L28.171,33.992L28.96,33.722Z" style="fill:#0df2cc;"/><path d="M16.596,29.383L13.728,28.717L13.505,29.548L13.188,30.982L13.331,31.257L14.608,33.357C14.608,33.357 12.358,32.918 12.358,32.918L12.325,32.917L10.278,32.955L10.333,33.177L11.027,35.275L10.705,33.334C10.705,33.334 12.241,33.521 12.241,33.521C12.241,33.521 16.811,35.003 16.811,35.003L16.225,33.882L14.886,30.848C14.886,30.848 14.887,30.843 14.887,30.843C14.887,30.843 19.596,32.236 19.596,32.236L19.079,30.49L18.698,29.119C18.698,29.119 21.377,28.889 21.377,28.889L21.647,28.38L22.52,26.717L24.291,27.673L24.826,27.034L25.898,25.731L24.365,24.446L23.816,25.088C23.816,25.088 19.846,22.89 19.846,22.89L20.167,24.976L20.361,26.294C20.361,26.294 20.048,26.878 20.048,26.878C20.048,26.878 15.952,27.236 15.952,27.236L16.318,28.476L16.596,29.383Z" style="fill:#0df2cc;"/><ellipse cx="25" cy="25" rx="11" ry="8" style="fill:#fff;"/><path d="M25,17C31.071,17 36,20.585 36,25C36,29.415 31.071,33 25,33C18.929,33 14,29.415 14,25C14,20.585 18.929,17 25,17ZM25,22C26.88,22 28.602,22.491 29.836,23.388C30.444,23.83 31,24.326 31,25C31,25.674 30.444,26.17 29.836,26.612C28.602,27.509 26.88,28 25,28C23.12,28 21.398,27.509 20.164,26.612C19.556,26.17 19,25.674 19,25C19,24.326 19.556,23.83 20.164,23.388C21.398,22.491 23.12,22 25,22Z" style="fill:#6ef7e0;"/><path d="M25,17C31.071,17 36,20.585 36,25C36,29.415 31.071,33 25,33C18.929,33 14,29.415 14,25C14,20.585 18.929,17 25,17ZM25,19C28.057,19 30.788,20.03 32.468,21.697C33.407,22.628 34,23.758 34,25C34,26.242 33.407,27.372 32.468,28.303C30.788,29.97 28.057,31 25,31C21.943,31 19.212,29.97 17.532,28.303C16.593,27.372 16,26.242 16,25C16,23.758 16.593,22.628 17.532,21.697C19.212,20.03 21.943,19 25,19Z" style="fill:#0df2cc;"/></svg>