<?xml version="1.0" encoding="UTF-8" standalone="no"?><!DOCTYPE svg PUBLIC "-//W3C//DTD SVG 1.1//EN" "http://www.w3.org/Graphics/SVG/1.1/DTD/svg11.dtd"><svg width="100%" height="100%" viewBox="0 0 50 50" version="1.1" xmlns="http://www.w3.org/2000/svg" xmlns:xlink="http://www.w3.org/1999/xlink" xml:space="preserve" xmlns:serif="http://www.serif.com/" style="fill-rule:evenodd;clip-rule:evenodd;stroke-linejoin:round;stroke-miterlimit:2;"><rect id="weapon-phaser-cannon" x="0" y="0" width="50" height="50" style="fill:none;"/><path d="M25,25C25,25 40.91,16.161 46.213,10.858C48.165,8.907 48.165,5.738 46.213,3.787C44.262,1.835 41.093,1.835 39.142,3.787C33.839,9.09 25,25 25,25Z" style="fill:#fff;"/><path d="M25,25C25,25 40.91,16.161 46.213,10.858C48.165,8.907 48.165,5.738 46.213,3.787C44.262,1.835 41.093,1.835 39.142,3.787C33.839,9.09 25,25 25,25ZM36.962,13.038C38.721,10.45 40.488,8.098 41.971,6.615C42.361,6.225 42.995,6.225 43.385,6.615C43.775,7.005 43.775,7.639 43.385,8.029C41.902,9.512 39.55,11.279 36.962,13.038Z" style="fill:#f2a60d;"/><path d="M25,25C25,25 40.91,16.161 46.213,10.858C48.165,8.907 48.165,5.738 46.213,3.787C44.262,1.835 41.093,1.835 39.142,3.787C33.839,9.09 25,25 25,25ZM30.518,19.482C33.478,14.569 37.581,8.176 40.556,5.201C41.727,4.03 43.628,4.03 44.799,5.201C45.97,6.372 45.97,8.273 44.799,9.444C41.824,12.419 35.431,16.522 30.518,19.482Z" style="fill:#f26c0d;"/><path d="M2.787,47.213C2.787,47.213 18.697,38.374 24,33.071C25.951,31.12 25.951,27.951 24,26C22.049,24.049 18.88,24.049 16.929,26C11.626,31.303 2.787,47.213 2.787,47.213Z" style="fill:#fff;"/><path d="M2.787,47.213C2.787,47.213 18.697,38.374 24,33.071C25.951,31.12 25.951,27.951 24,26C22.049,24.049 18.88,24.049 16.929,26C11.626,31.303 2.787,47.213 2.787,47.213ZM14.749,35.251C16.508,32.663 18.275,30.311 19.757,28.828C20.148,28.438 20.781,28.438 21.172,28.828C21.562,29.219 21.562,29.852 21.172,30.243C19.689,31.725 17.336,33.492 14.749,35.251Z" style="fill:#f2a60d;"/><path d="M2.787,47.213C2.787,47.213 18.697,38.374 24,33.071C25.951,31.12 25.951,27.951 24,26C22.049,24.049 18.88,24.049 16.929,26C11.626,31.303 2.787,47.213 2.787,47.213ZM8.305,41.695C11.264,36.783 15.368,30.389 18.343,27.414C19.514,26.243 21.415,26.243 22.586,27.414C23.757,28.585 23.757,30.486 22.586,31.657C19.611,34.632 13.218,38.736 8.305,41.695Z" style="fill:#f26c0d;"/></svg>