<?xml version="1.0" encoding="UTF-8" standalone="no"?><!DOCTYPE svg PUBLIC "-//W3C//DTD SVG 1.1//EN" "http://www.w3.org/Graphics/SVG/1.1/DTD/svg11.dtd"><svg width="100%" height="100%" viewBox="0 0 50 50" version="1.1" xmlns="http://www.w3.org/2000/svg" xmlns:xlink="http://www.w3.org/1999/xlink" xml:space="preserve" xmlns:serif="http://www.serif.com/" style="fill-rule:evenodd;clip-rule:evenodd;stroke-linejoin:round;stroke-miterlimit:2;"><rect id="weapon-phaser-array-spread" x="0" y="0" width="50" height="50" style="fill:none;"/><path d="M32.749,17.251C32.749,17.251 43.709,13.362 46.891,10.18C48.842,8.229 48.842,5.06 46.891,3.109C44.94,1.158 41.771,1.158 39.82,3.109C36.638,6.291 32.749,17.251 32.749,17.251Z" style="fill:#fff;"/><path d="M32.749,17.251C32.749,17.251 43.709,13.362 46.891,10.18C48.842,8.229 48.842,5.06 46.891,3.109C44.94,1.158 41.771,1.158 39.82,3.109C36.638,6.291 32.749,17.251 32.749,17.251ZM40.071,9.929C40.904,8.271 41.798,6.788 42.648,5.938C43.038,5.547 43.672,5.547 44.062,5.938C44.453,6.328 44.453,6.962 44.062,7.352C43.212,8.202 41.729,9.096 40.071,9.929Z" style="fill:#f2a60d;"/><path d="M32.749,17.251C32.749,17.251 43.709,13.362 46.891,10.18C48.842,8.229 48.842,5.06 46.891,3.109C44.94,1.158 41.771,1.158 39.82,3.109C36.638,6.291 32.749,17.251 32.749,17.251ZM36.201,13.799C37.525,10.547 39.48,6.277 41.234,4.523C42.405,3.353 44.306,3.353 45.477,4.523C46.647,5.694 46.647,7.595 45.477,8.766C43.723,10.52 39.453,12.475 36.201,13.799Z" style="fill:#f26c0d;"/><path d="M25.678,24.322C25.678,24.322 36.638,20.433 39.82,17.251C41.771,15.3 41.771,12.132 39.82,10.18C37.868,8.229 34.7,8.229 32.749,10.18C29.567,13.362 25.678,24.322 25.678,24.322Z" style="fill:#fff;"/><path d="M25.678,24.322C25.678,24.322 36.638,20.433 39.82,17.251C41.771,15.3 41.771,12.132 39.82,10.18C37.868,8.229 34.7,8.229 32.749,10.18C29.567,13.362 25.678,24.322 25.678,24.322ZM33,17C33.833,15.342 34.726,13.859 35.577,13.009C35.967,12.618 36.601,12.618 36.991,13.009C37.382,13.399 37.382,14.033 36.991,14.423C36.141,15.274 34.658,16.167 33,17Z" style="fill:#f2a60d;"/><path d="M25.678,24.322C25.678,24.322 36.638,20.433 39.82,17.251C41.771,15.3 41.771,12.132 39.82,10.18C37.868,8.229 34.7,8.229 32.749,10.18C29.567,13.362 25.678,24.322 25.678,24.322ZM29.13,20.87C30.454,17.618 32.409,13.349 34.163,11.594C35.334,10.424 37.235,10.424 38.406,11.594C39.576,12.765 39.576,14.666 38.406,15.837C36.651,17.591 32.381,19.546 29.13,20.87Z" style="fill:#f26c0d;"/><path d="M8,42C8,42 26.385,30.686 32.749,24.322C34.7,22.371 34.7,19.203 32.749,17.251C30.797,15.3 27.629,15.3 25.678,17.251C19.314,23.615 8,42 8,42Z" style="fill:#fff;"/><path d="M8,42C8,42 26.385,30.686 32.749,24.322C34.7,22.371 34.7,19.203 32.749,17.251C30.797,15.3 27.629,15.3 25.678,17.251C19.314,23.615 8,42 8,42ZM22.303,27.697C24.516,24.654 26.712,21.873 28.506,20.08C28.896,19.689 29.53,19.689 29.92,20.08C30.311,20.47 30.311,21.104 29.92,21.494C28.127,23.287 25.346,25.484 22.303,27.697Z" style="fill:#f2a60d;"/><path d="M8,42C8,42 26.385,30.686 32.749,24.322C34.7,22.371 34.7,19.203 32.749,17.251C30.797,15.3 27.629,15.3 25.678,17.251C19.314,23.615 8,42 8,42ZM14.572,35.428C18.342,29.7 23.51,22.247 27.092,18.665C28.263,17.495 30.164,17.495 31.335,18.665C32.505,19.836 32.505,21.737 31.335,22.908C27.753,26.49 20.3,31.658 14.572,35.428Z" style="fill:#f26c0d;"/><path d="M6.034,40.493C3.263,37.125 0.193,32.165 0.193,32.165C0.193,32.165 5.113,34.128 8.863,36.167C9.223,36.057 9.605,36 10,36C12.208,36 14,37.792 14,40C14,40.406 13.939,40.798 13.826,41.167C15.849,44.907 17.785,49.757 17.785,49.757C17.785,49.757 12.887,46.726 9.52,43.969C7.7,43.753 6.254,42.311 6.034,40.493Z" style="fill:#fff;"/><path d="M6.034,40.493C3.263,37.125 0.193,32.165 0.193,32.165C0.193,32.165 5.113,34.128 8.863,36.167C9.223,36.057 9.605,36 10,36C12.208,36 14,37.792 14,40C14,40.406 13.939,40.798 13.826,41.167C15.849,44.907 17.785,49.757 17.785,49.757C17.785,49.757 12.887,46.726 9.52,43.969C7.7,43.753 6.254,42.311 6.034,40.493ZM10.828,41.27C10.816,40.94 10.859,40.606 10.959,40.284C10.986,40.194 11,40.099 11,40C11,39.448 10.552,39 10,39C9.908,39 9.818,39.012 9.734,39.038C9.403,39.138 9.06,39.179 8.721,39.163C8.872,39.465 8.971,39.793 9.012,40.131C9.066,40.58 9.424,40.936 9.873,40.989C10.207,41.029 10.53,41.124 10.828,41.27Z" style="fill:#f2a60d;"/><path d="M6.034,40.493C3.263,37.125 0.193,32.165 0.193,32.165C0.193,32.165 5.113,34.128 8.863,36.167C9.223,36.057 9.605,36 10,36C12.208,36 14,37.792 14,40C14,40.406 13.939,40.798 13.826,41.167C15.849,44.907 17.785,49.757 17.785,49.757C17.785,49.757 12.887,46.726 9.52,43.969C7.7,43.753 6.254,42.311 6.034,40.493ZM8.019,40.252L7.949,39.673L7.578,39.222C6.96,38.47 6.326,37.637 5.716,36.799C6.461,37.163 7.206,37.542 7.908,37.924L8.643,38.323L9.443,38.081C9.62,38.027 9.807,38 10,38C11.104,38 12,38.896 12,40C12,40.201 11.971,40.395 11.914,40.578L11.667,41.38L12.067,42.118C12.434,42.798 12.799,43.515 13.149,44.233C12.334,43.639 11.523,43.024 10.788,42.421L10.336,42.051L9.756,41.982C8.849,41.875 8.129,41.157 8.019,40.252Z" style="fill:#f26c0d;"/></svg>