<?xml version="1.0" encoding="UTF-8" standalone="no"?><!DOCTYPE svg PUBLIC "-//W3C//DTD SVG 1.1//EN" "http://www.w3.org/Graphics/SVG/1.1/DTD/svg11.dtd"><svg width="100%" height="100%" viewBox="0 0 40 40" version="1.1" xmlns="http://www.w3.org/2000/svg" xmlns:xlink="http://www.w3.org/1999/xlink" xml:space="preserve" xmlns:serif="http://www.serif.com/" style="fill-rule:evenodd;clip-rule:evenodd;stroke-linejoin:round;stroke-miterlimit:2;"><rect id="plain-engines" x="0" y="0" width="40" height="40" style="fill:none;"/><g id="Warp-Core" serif:id="Warp Core"><path id="Warp-Core1" serif:id="Warp Core" d="M29.412,34.118C29.412,33.079 28.568,32.235 27.529,32.235L12.471,32.235C11.432,32.235 10.588,33.079 10.588,34.118C10.588,35.157 11.432,36 12.471,36L27.529,36C28.568,36 29.412,35.157 29.412,34.118ZM29.412,28.471C29.412,27.432 28.568,26.588 27.529,26.588L12.471,26.588C11.432,26.588 10.588,27.432 10.588,28.471C10.588,29.509 11.432,30.353 12.471,30.353L27.529,30.353C28.568,30.353 29.412,29.509 29.412,28.471ZM32.235,20C32.235,17.403 30.127,15.294 27.529,15.294L12.471,15.294C9.873,15.294 7.765,17.403 7.765,20C7.765,22.597 9.873,24.706 12.471,24.706L27.529,24.706C30.127,24.706 32.235,22.597 32.235,20ZM22.824,20C22.824,18.442 21.558,17.176 20,17.176C18.442,17.176 17.176,18.442 17.176,20C17.176,21.558 18.442,22.824 20,22.824C21.558,22.824 22.824,21.558 22.824,20ZM29.412,11.529C29.412,10.491 28.568,9.647 27.529,9.647L12.471,9.647C11.432,9.647 10.588,10.491 10.588,11.529C10.588,12.568 11.432,13.412 12.471,13.412L27.529,13.412C28.568,13.412 29.412,12.568 29.412,11.529ZM29.412,5.882C29.412,4.843 28.568,4 27.529,4L12.471,4C11.432,4 10.588,4.843 10.588,5.882C10.588,6.921 11.432,7.765 12.471,7.765L27.529,7.765C28.568,7.765 29.412,6.921 29.412,5.882Z" style="fill:#f1de7f;"/></g></svg>