<?xml version="1.0" encoding="UTF-8" standalone="no"?><!DOCTYPE svg PUBLIC "-//W3C//DTD SVG 1.1//EN" "http://www.w3.org/Graphics/SVG/1.1/DTD/svg11.dtd"><svg width="100%" height="100%" viewBox="0 0 40 40" version="1.1" xmlns="http://www.w3.org/2000/svg" xmlns:xlink="http://www.w3.org/1999/xlink" xml:space="preserve" xmlns:serif="http://www.serif.com/" style="fill-rule:evenodd;clip-rule:evenodd;stroke-linejoin:round;stroke-miterlimit:2;"><rect id="plain-computers" x="0" y="0" width="40" height="40" style="fill:none;"/><g id="Computers"><path id="Computers1" serif:id="Computers" d="M9.294,27.191C8.802,26.906 8.471,26.374 8.471,25.765C8.471,24.856 9.209,24.118 10.118,24.118C11.027,24.118 11.765,24.856 11.765,25.765C11.765,26.374 11.433,26.906 10.941,27.191L10.941,30.927C11.433,31.211 11.765,31.744 11.765,32.353C11.765,33.262 11.027,34 10.118,34C9.209,34 8.471,33.262 8.471,32.353C8.471,31.744 8.802,31.211 9.294,30.927L9.294,27.191ZM11.765,9.073C11.273,8.789 10.941,8.256 10.941,7.647C10.941,6.738 11.679,6 12.588,6C13.497,6 14.235,6.738 14.235,7.647C14.235,8.256 13.904,8.789 13.412,9.073L13.412,15.541L20,22.129L20,34L13.412,34L13.412,30.706L15.059,30.706L15.059,25.282L6.824,17.047L6.824,9.073C6.331,8.789 6,8.256 6,7.647C6,6.738 6.738,6 7.647,6C8.556,6 9.294,6.738 9.294,7.647C9.294,8.256 8.963,8.789 8.471,9.073L8.471,16.365L16.706,24.6L16.706,30.706L18.353,30.706L18.353,22.812L11.765,16.223L11.765,9.073ZM20.427,19.121C20.29,19.157 20.147,19.176 20,19.176C19.091,19.176 18.353,18.438 18.353,17.529C18.353,16.62 19.091,15.882 20,15.882C20.909,15.882 21.647,16.62 21.647,17.529C21.647,17.677 21.628,17.82 21.591,17.956L23.294,19.659C23.294,19.659 23.294,29.882 23.294,29.882L30.927,29.882C31.211,29.39 31.744,29.059 32.353,29.059C33.262,29.059 34,29.797 34,30.706C34,31.615 33.262,32.353 32.353,32.353C31.744,32.353 31.211,32.022 30.927,31.529L21.647,31.529C21.647,31.529 21.647,20.341 21.647,20.341L20.427,19.121ZM30.706,6.824L30.706,6L34,6L34,14.235L31.871,14.235L26.588,19.518C26.588,19.518 26.588,24.941 26.588,24.941L30.927,24.941C31.211,24.449 31.744,24.118 32.353,24.118C33.262,24.118 34,24.856 34,25.765C34,26.674 33.262,27.412 32.353,27.412C31.744,27.412 31.211,27.08 30.927,26.588L24.941,26.588L24.941,18.835L30.706,13.071L30.706,8.471L28.576,8.471L23.635,13.412L19.779,13.412C19.494,13.904 18.962,14.235 18.353,14.235C17.444,14.235 16.706,13.497 16.706,12.588C16.706,11.679 17.444,10.941 18.353,10.941C18.962,10.941 19.494,11.273 19.779,11.765L22.953,11.765L26.247,8.471L19.779,8.471C19.494,8.963 18.962,9.294 18.353,9.294C17.444,9.294 16.706,8.556 16.706,7.647C16.706,6.738 17.444,6 18.353,6C18.962,6 19.494,6.331 19.779,6.824L30.706,6.824Z" style="fill:#f1de7f;"/></g></svg>