<?xml version="1.0" encoding="UTF-8" standalone="no"?><!DOCTYPE svg PUBLIC "-//W3C//DTD SVG 1.1//EN" "http://www.w3.org/Graphics/SVG/1.1/DTD/svg11.dtd"><svg width="100%" height="100%" viewBox="0 0 40 40" version="1.1" xmlns="http://www.w3.org/2000/svg" xmlns:xlink="http://www.w3.org/1999/xlink" xml:space="preserve" xmlns:serif="http://www.serif.com/" style="fill-rule:evenodd;clip-rule:evenodd;stroke-linejoin:round;stroke-miterlimit:2;"><rect id="plain-betazoid" x="0" y="0" width="40" height="40" style="fill:none;"/><g id="Betazoid"><path id="Betazoid1" serif:id="Betazoid" d="M22.729,7.951C21.383,7.933 19.988,8.15 18.609,8.597C18.451,8.336 18.261,8.093 18.042,7.874C17.21,7.043 16.056,6.648 14.767,6.691C13.001,6.749 10.965,7.647 9.306,9.306C7.647,10.965 6.749,13.001 6.691,14.767C6.648,16.056 7.043,17.21 7.874,18.042C8.093,18.261 8.336,18.451 8.597,18.609C8.15,19.988 7.933,21.383 7.951,22.729C6.168,24.829 5.158,27.201 5.017,29.269C4.901,30.982 5.372,32.498 6.437,33.563C7.502,34.628 9.018,35.099 10.731,34.983C12.799,34.842 15.171,33.832 17.271,32.049C20.748,32.096 24.555,30.573 27.564,27.564C30.573,24.555 32.096,20.748 32.049,17.271C33.832,15.171 34.842,12.799 34.983,10.731C35.099,9.018 34.628,7.502 33.563,6.437C32.498,5.372 30.982,4.901 29.269,5.017C27.201,5.158 24.829,6.168 22.729,7.951ZM15.146,31.813C13.426,31.443 11.86,30.64 10.61,29.39C9.36,28.14 8.557,26.574 8.187,24.854C7.174,26.359 6.586,27.942 6.489,29.369C6.404,30.62 6.702,31.742 7.48,32.52C8.258,33.298 9.38,33.596 10.631,33.511C12.058,33.414 13.641,32.826 15.146,31.813ZM17.195,9.14C17.134,9.062 17.069,8.988 16.998,8.917C16.447,8.366 15.67,8.137 14.816,8.165C13.366,8.214 11.712,8.987 10.349,10.349C8.987,11.712 8.214,13.366 8.165,14.816C8.137,15.67 8.366,16.447 8.917,16.998C8.988,17.069 9.062,17.134 9.14,17.195C9.89,15.508 10.992,13.88 12.436,12.436C13.88,10.992 15.508,9.89 17.195,9.14ZM19.292,27.342C18.745,28.32 18.019,29.284 17.131,30.172C16.994,30.309 16.856,30.442 16.715,30.571C14.784,30.429 13.009,29.702 11.653,28.347C10.298,26.991 9.571,25.216 9.429,23.285C9.558,23.144 9.691,23.006 9.828,22.869C10.716,21.981 11.68,21.255 12.658,20.708C12.816,22.354 13.524,23.957 14.783,25.217C16.043,26.476 17.646,27.184 19.292,27.342ZM12.695,18.976C12.168,19.124 11.647,19.208 11.149,19.224C10.738,19.238 10.341,19.207 9.964,19.132C9.747,19.806 9.593,20.484 9.501,21.154C10.517,20.262 11.601,19.554 12.686,19.039C12.689,19.018 12.692,18.997 12.695,18.976ZM17.249,13.154C16.351,13.513 15.51,14.057 14.783,14.783C14.057,15.51 13.513,16.351 13.154,17.249C12.458,17.557 11.758,17.728 11.1,17.75C10.898,17.757 10.701,17.749 10.51,17.726C11.194,16.222 12.19,14.768 13.479,13.479C14.768,12.19 16.222,11.194 17.726,10.51C17.749,10.701 17.757,10.898 17.75,11.1C17.728,11.758 17.557,12.458 17.249,13.154ZM20.369,24.632L22.222,24.632L22.222,15.411L21.853,15.411L21.853,21.299L18.121,21.299L18.121,15.411L17.427,15.411L17.427,22.419L20.369,22.419L20.369,24.632ZM19.631,24.632L17.427,24.632L17.427,23.157L19.631,23.157L19.631,24.632ZM30.499,18.846C29.483,19.738 28.399,20.446 27.314,20.961C27.11,22.518 26.411,24.022 25.217,25.217C24.022,26.411 22.518,27.11 20.961,27.314C20.446,28.4 19.738,29.484 18.846,30.499C21.502,30.137 24.264,28.778 26.521,26.521C28.778,24.264 30.137,21.502 30.499,18.846ZM21.115,15.411L18.859,15.411L18.859,20.561C18.859,20.561 21.115,20.561 21.115,20.561L21.115,15.411ZM21.154,9.501C20.483,9.593 19.806,9.748 19.132,9.964C19.207,10.341 19.238,10.738 19.224,11.149C19.208,11.647 19.124,12.168 18.976,12.695C18.997,12.692 19.018,12.689 19.039,12.686C19.554,11.6 20.262,10.516 21.154,9.501ZM30.571,16.715C30.442,16.856 30.309,16.994 30.172,17.131C29.284,18.019 28.32,18.745 27.342,19.292C27.184,17.646 26.476,16.043 25.217,14.783C23.957,13.524 22.354,12.816 20.708,12.658C21.255,11.68 21.981,10.716 22.869,9.828C23.006,9.691 23.144,9.558 23.285,9.429C25.216,9.571 26.991,10.298 28.347,11.653C29.702,13.009 30.429,14.784 30.571,16.715ZM31.813,15.146C32.826,13.641 33.414,12.058 33.511,10.631C33.596,9.38 33.298,8.258 32.52,7.48C31.742,6.702 30.62,6.404 29.369,6.489C27.942,6.586 26.359,7.174 24.854,8.187C26.574,8.557 28.14,9.36 29.39,10.61C30.64,11.86 31.443,13.426 31.813,15.146Z" style="fill:#dbc557;"/></g></svg>