<?xml version="1.0" encoding="UTF-8" standalone="no"?><!DOCTYPE svg PUBLIC "-//W3C//DTD SVG 1.1//EN" "http://www.w3.org/Graphics/SVG/1.1/DTD/svg11.dtd"><svg width="100%" height="100%" viewBox="0 0 40 40" version="1.1" xmlns="http://www.w3.org/2000/svg" xmlns:xlink="http://www.w3.org/1999/xlink" xml:space="preserve" xmlns:serif="http://www.serif.com/" style="fill-rule:evenodd;clip-rule:evenodd;stroke-linejoin:round;stroke-miterlimit:2;"><rect id="plain-comms" x="0" y="0" width="40" height="40" style="fill:none;"/><g id="Comms"><path id="Comms1" serif:id="Comms" d="M19.435,31.089C19.209,30.918 19.063,30.647 19.063,30.342C19.063,29.825 19.483,29.405 20,29.405C20.517,29.405 20.937,29.825 20.937,30.342C20.937,30.647 20.791,30.918 20.565,31.089L20.643,31.714C24.132,31.647 27.31,31.046 29.371,30.315C29.371,32.901 25.172,35 20,35C14.828,35 10.629,32.901 10.629,30.315C12.69,31.046 15.868,31.647 19.357,31.714L19.435,31.089ZM13.441,23.755C15.627,24.99 17.814,25.603 20,25.6C22.186,25.598 24.373,24.98 26.559,23.755C22.186,28.701 17.814,28.786 13.441,23.755ZM11.566,20.014C14.378,21.249 17.189,21.861 20,21.859C22.811,21.856 25.622,21.239 28.434,20.014C22.811,24.96 17.189,25.045 11.566,20.014ZM9.692,16.266C13.128,17.5 16.564,18.113 20,18.111C23.436,18.108 26.872,17.491 30.308,16.266C23.436,21.211 16.564,21.297 9.692,16.266ZM7.818,12.51C11.879,13.745 15.939,14.358 20,14.355C24.061,14.353 28.121,13.736 32.182,12.51C24.061,17.456 15.939,17.541 7.818,12.51ZM5.944,8.755C10.629,9.99 15.315,10.603 20,10.6C24.685,10.598 29.371,9.98 34.056,8.755C24.685,13.701 15.315,13.786 5.944,8.755ZM4.07,5C9.38,6.235 14.69,6.847 20,6.845C25.31,6.843 30.62,6.225 35.93,5C25.31,9.946 14.69,10.031 4.07,5Z" style="fill:#f1de7f;"/></g></svg>