<?xml version="1.0" encoding="UTF-8" standalone="no"?><!DOCTYPE svg PUBLIC "-//W3C//DTD SVG 1.1//EN" "http://www.w3.org/Graphics/SVG/1.1/DTD/svg11.dtd"><svg width="100%" height="100%" viewBox="0 0 50 50" version="1.1" xmlns="http://www.w3.org/2000/svg" xmlns:xlink="http://www.w3.org/1999/xlink" xml:space="preserve" xmlns:serif="http://www.serif.com/" style="fill-rule:evenodd;clip-rule:evenodd;stroke-linejoin:round;stroke-miterlimit:2;"><rect id="talent-betazoid" x="0" y="0" width="50" height="50" style="fill:none;"/><g id="Talent-Frame" serif:id="Talent Frame"><path d="M1,6L25,1L49,6L49,24L44,23L44,30L49,31L49,49L25,44L1,49L1,31L6,30L6,23L1,24L1,6Z" style="fill:#10273d;"/><path d="M0,5L25,0L50,5L50,25L45,24L45,29L50,30L50,50L25,45L0,50L0,30L5,29L5,24L0,25L0,5ZM2,6.64L25,2.04C25,2.04 48,6.64 48,6.64C48,6.64 48,22.56 48,22.56C48,22.56 43,21.56 43,21.56L43,30.64L48,31.64C48,31.64 48,47.56 48,47.56C48,47.56 25,42.96 25,42.96L2,47.56C2,47.56 2,31.64 2,31.64C2,31.64 7,30.64 7,30.64L7,21.56L2,22.56L2,6.64Z" style="fill:#0077af;"/></g><g id="Betazoid"><path id="Betazoid1" serif:id="Betazoid" d="M28.184,10.943C26.613,10.922 24.986,11.175 23.377,11.697C23.192,11.392 22.971,11.109 22.715,10.853C21.746,9.883 20.398,9.423 18.894,9.472C16.835,9.541 14.459,10.588 12.524,12.524C10.588,14.459 9.541,16.835 9.472,18.894C9.423,20.398 9.883,21.746 10.853,22.715C11.109,22.971 11.392,23.192 11.697,23.377C11.175,24.986 10.922,26.614 10.943,28.184C8.862,30.634 7.684,33.401 7.52,35.813C7.384,37.812 7.934,39.581 9.176,40.824C10.419,42.066 12.188,42.616 14.187,42.48C16.599,42.316 19.366,41.138 21.816,39.057C25.873,39.112 30.314,37.335 33.825,33.825C37.335,30.314 39.112,25.873 39.057,21.816C41.138,19.366 42.316,16.599 42.48,14.187C42.616,12.188 42.066,10.419 40.824,9.176C39.581,7.934 37.812,7.384 35.813,7.52C33.401,7.684 30.634,8.862 28.184,10.943ZM19.337,38.782C17.33,38.351 15.503,37.413 14.045,35.955C12.587,34.497 11.649,32.67 11.218,30.663C10.037,32.418 9.351,34.265 9.238,35.93C9.138,37.39 9.486,38.699 10.394,39.606C11.301,40.514 12.61,40.862 14.07,40.762C15.735,40.649 17.582,39.963 19.337,38.782ZM21.727,12.33C21.657,12.239 21.58,12.152 21.498,12.07C20.855,11.427 19.948,11.16 18.952,11.193C17.26,11.249 15.33,12.151 13.741,13.741C12.151,15.33 11.249,17.26 11.193,18.952C11.16,19.948 11.427,20.855 12.07,21.498C12.152,21.58 12.239,21.657 12.33,21.727C13.205,19.759 14.49,17.86 16.175,16.175C17.86,14.49 19.759,13.205 21.727,12.33ZM24.174,33.566C23.536,34.707 22.689,35.831 21.653,36.868C21.493,37.027 21.332,37.182 21.168,37.333C18.915,37.168 16.844,36.319 15.262,34.738C13.681,33.156 12.832,31.085 12.667,28.832C12.818,28.668 12.973,28.507 13.132,28.347C14.169,27.311 15.293,26.464 16.434,25.826C16.618,27.747 17.445,29.617 18.914,31.086C20.383,32.555 22.253,33.382 24.174,33.566ZM16.478,23.805C15.862,23.978 15.255,24.076 14.673,24.095C14.195,24.111 13.732,24.075 13.292,23.988C13.039,24.774 12.858,25.564 12.751,26.346C13.936,25.306 15.201,24.479 16.468,23.879C16.471,23.855 16.474,23.83 16.478,23.805ZM21.79,17.013C20.743,17.432 19.762,18.066 18.914,18.914C18.066,19.762 17.432,20.743 17.013,21.79C16.201,22.149 15.384,22.349 14.616,22.375C14.381,22.383 14.151,22.374 13.928,22.347C14.726,20.593 15.888,18.896 17.392,17.392C18.896,15.888 20.593,14.726 22.347,13.928C22.374,14.151 22.383,14.381 22.375,14.616C22.349,15.384 22.149,16.201 21.79,17.013ZM25.43,30.405L27.592,30.405L27.592,19.646L27.162,19.646L27.162,26.515L22.808,26.515L22.808,19.646L21.998,19.646L21.998,27.822L25.43,27.822L25.43,30.405ZM24.57,30.405L21.998,30.405L21.998,28.683L24.57,28.683L24.57,30.405ZM37.249,23.654C36.064,24.694 34.799,25.521 33.532,26.121C33.295,27.937 32.48,29.692 31.086,31.086C29.692,32.48 27.937,33.295 26.121,33.532C25.521,34.799 24.694,36.064 23.654,37.249C26.753,36.826 29.975,35.241 32.608,32.608C35.241,29.975 36.826,26.753 37.249,23.654ZM26.301,19.646L23.669,19.646L23.669,25.654C23.669,25.654 26.301,25.654 26.301,25.654L26.301,19.646ZM26.346,12.751C25.564,12.858 24.774,13.039 23.988,13.292C24.075,13.732 24.111,14.195 24.095,14.673C24.076,15.255 23.978,15.862 23.805,16.478C23.83,16.474 23.855,16.471 23.879,16.468C24.479,15.201 25.306,13.936 26.346,12.751ZM37.333,21.168C37.182,21.332 37.027,21.493 36.868,21.653C35.831,22.689 34.707,23.536 33.566,24.174C33.382,22.253 32.555,20.383 31.086,18.914C29.617,17.445 27.747,16.618 25.826,16.434C26.464,15.293 27.311,14.169 28.347,13.132C28.507,12.973 28.668,12.818 28.832,12.667C31.085,12.832 33.156,13.681 34.738,15.262C36.319,16.844 37.168,18.915 37.333,21.168ZM38.782,19.337C39.963,17.582 40.649,15.735 40.762,14.07C40.862,12.61 40.514,11.301 39.606,10.394C38.699,9.486 37.39,9.138 35.93,9.238C34.265,9.351 32.418,10.037 30.663,11.218C32.67,11.649 34.497,12.587 35.955,14.045C37.413,15.503 38.351,17.33 38.782,19.337Z" style="fill:#dbc557;"/></g></svg>