<?xml version="1.0" encoding="UTF-8" standalone="no"?><!DOCTYPE svg PUBLIC "-//W3C//DTD SVG 1.1//EN" "http://www.w3.org/Graphics/SVG/1.1/DTD/svg11.dtd"><svg width="100%" height="100%" viewBox="0 0 50 50" version="1.1" xmlns="http://www.w3.org/2000/svg" xmlns:xlink="http://www.w3.org/1999/xlink" xml:space="preserve" xmlns:serif="http://www.serif.com/" style="fill-rule:evenodd;clip-rule:evenodd;stroke-linejoin:round;stroke-miterlimit:2;"><rect id="focus-betazoid" x="0" y="0" width="50" height="50" style="fill:none;"/><g id="Focus-Frame" serif:id="Focus Frame"><path d="M25,1L45.785,13L45.785,37L25,49L4.215,37L4.215,13L25,1Z" style="fill:#10273d;"/><path d="M25,0L46.651,12.5L46.651,37.5L25,50L3.349,37.5L3.349,12.5L25,0ZM25,2.309L44.651,13.655C44.651,13.655 44.651,36.345 44.651,36.345C44.651,36.345 25,47.691 25,47.691C25,47.691 5.349,36.345 5.349,36.345C5.349,36.345 5.349,13.655 5.349,13.655L25,2.309Z" style="fill:#0077af;"/></g><g id="Betazoid"><path id="Betazoid1" serif:id="Betazoid" d="M27.729,12.951C26.383,12.933 24.988,13.15 23.609,13.597C23.451,13.336 23.261,13.093 23.042,12.874C22.21,12.043 21.056,11.648 19.767,11.691C18.001,11.749 15.965,12.647 14.306,14.306C12.647,15.965 11.749,18.001 11.691,19.767C11.648,21.056 12.043,22.21 12.874,23.042C13.093,23.261 13.336,23.451 13.597,23.609C13.15,24.988 12.933,26.383 12.951,27.729C11.168,29.829 10.158,32.201 10.017,34.269C9.901,35.982 10.372,37.498 11.437,38.563C12.502,39.628 14.018,40.099 15.731,39.983C17.799,39.842 20.171,38.832 22.271,37.049C25.748,37.096 29.555,35.573 32.564,32.564C35.573,29.555 37.096,25.748 37.049,22.271C38.832,20.171 39.842,17.799 39.983,15.731C40.099,14.018 39.628,12.502 38.563,11.437C37.498,10.372 35.982,9.901 34.269,10.017C32.201,10.158 29.829,11.168 27.729,12.951ZM20.146,36.813C18.426,36.443 16.86,35.64 15.61,34.39C14.36,33.14 13.557,31.574 13.187,29.854C12.174,31.359 11.586,32.942 11.489,34.369C11.404,35.62 11.702,36.742 12.48,37.52C13.258,38.298 14.38,38.596 15.631,38.511C17.058,38.414 18.641,37.826 20.146,36.813ZM22.195,14.14C22.134,14.062 22.069,13.988 21.998,13.917C21.447,13.366 20.67,13.137 19.816,13.165C18.366,13.214 16.712,13.987 15.349,15.349C13.987,16.712 13.214,18.366 13.165,19.816C13.137,20.67 13.366,21.447 13.917,21.998C13.988,22.069 14.062,22.134 14.14,22.195C14.89,20.508 15.992,18.88 17.436,17.436C18.88,15.992 20.508,14.89 22.195,14.14ZM24.292,32.342C23.745,33.32 23.019,34.284 22.131,35.172C21.994,35.309 21.856,35.442 21.715,35.571C19.784,35.429 18.009,34.702 16.653,33.347C15.298,31.991 14.571,30.216 14.429,28.285C14.558,28.144 14.691,28.006 14.828,27.869C15.716,26.981 16.68,26.255 17.658,25.708C17.816,27.354 18.524,28.957 19.783,30.217C21.043,31.476 22.646,32.184 24.292,32.342ZM17.695,23.976C17.168,24.124 16.647,24.208 16.149,24.224C15.738,24.238 15.341,24.207 14.964,24.132C14.747,24.806 14.593,25.484 14.501,26.154C15.517,25.262 16.601,24.554 17.686,24.039C17.689,24.018 17.692,23.997 17.695,23.976ZM22.249,18.154C21.351,18.513 20.51,19.057 19.783,19.783C19.057,20.51 18.513,21.351 18.154,22.249C17.458,22.557 16.758,22.728 16.1,22.75C15.898,22.757 15.701,22.749 15.51,22.726C16.194,21.222 17.19,19.768 18.479,18.479C19.768,17.19 21.222,16.194 22.726,15.51C22.749,15.701 22.757,15.898 22.75,16.1C22.728,16.758 22.557,17.458 22.249,18.154ZM25.369,29.632L27.222,29.632L27.222,20.411L26.853,20.411L26.853,26.299L23.121,26.299L23.121,20.411L22.427,20.411L22.427,27.419L25.369,27.419L25.369,29.632ZM24.631,29.632L22.427,29.632L22.427,28.157L24.631,28.157L24.631,29.632ZM35.499,23.846C34.483,24.738 33.399,25.446 32.314,25.961C32.11,27.518 31.411,29.022 30.217,30.217C29.022,31.411 27.518,32.11 25.961,32.314C25.446,33.4 24.738,34.484 23.846,35.499C26.502,35.137 29.264,33.778 31.521,31.521C33.778,29.264 35.137,26.502 35.499,23.846ZM26.115,20.411L23.859,20.411L23.859,25.561C23.859,25.561 26.115,25.561 26.115,25.561L26.115,20.411ZM26.154,14.501C25.483,14.593 24.806,14.748 24.132,14.964C24.207,15.341 24.238,15.738 24.224,16.149C24.208,16.647 24.124,17.168 23.976,17.695C23.997,17.692 24.018,17.689 24.039,17.686C24.554,16.6 25.262,15.516 26.154,14.501ZM35.571,21.715C35.442,21.856 35.309,21.994 35.172,22.131C34.284,23.019 33.32,23.745 32.342,24.292C32.184,22.646 31.476,21.043 30.217,19.783C28.957,18.524 27.354,17.816 25.708,17.658C26.255,16.68 26.981,15.716 27.869,14.828C28.006,14.691 28.144,14.558 28.285,14.429C30.216,14.571 31.991,15.298 33.347,16.653C34.702,18.009 35.429,19.784 35.571,21.715ZM36.813,20.146C37.826,18.641 38.414,17.058 38.511,15.631C38.596,14.38 38.298,13.258 37.52,12.48C36.742,11.702 35.62,11.404 34.369,11.489C32.942,11.586 31.359,12.174 29.854,13.187C31.574,13.557 33.14,14.36 34.39,15.61C35.64,16.86 36.443,18.426 36.813,20.146Z" style="fill:#dbc557;"/></g></svg>